<svg width="15" height="18" viewBox="0 0 15 18" fill="none" xmlns="http://www.w3.org/2000/svg">
<rect x="0.267857" y="0.267857" width="12.8571" height="15.5357" rx="1.875" fill="#C4C4C4" stroke="#F5703A" stroke-width="0.535714"/>
<rect x="1.87503" y="1.875" width="12.8571" height="15.5357" rx="1.875" fill="#F5703A" stroke="#F5703A" stroke-width="0.535714"/>
<g clip-path="url(#clip0_21_806)">
<path d="M8.86242 9.71322L6.17242 10.1618C6.1415 10.167 6.11248 10.1802 6.08828 10.2001C6.06408 10.22 6.04555 10.246 6.03457 10.2754L5.10707 12.76C5.0185 12.9886 5.25742 13.2064 5.47671 13.0968L11.9053 9.8825C11.9498 9.86027 11.9873 9.82607 12.0134 9.78374C12.0396 9.74141 12.0535 9.69263 12.0535 9.64286C12.0535 9.59309 12.0396 9.54431 12.0134 9.50198C11.9873 9.45965 11.9498 9.42545 11.9053 9.40322L5.47671 6.18893C5.25742 6.07929 5.0185 6.2975 5.10707 6.52572L6.03492 9.01036C6.04586 9.03979 6.06436 9.06582 6.08856 9.08583C6.11277 9.10583 6.14181 9.1191 6.17278 9.12429L8.86278 9.5725C8.87934 9.5754 8.89434 9.58405 8.90515 9.59692C8.91596 9.60979 8.92188 9.62605 8.92188 9.64286C8.92188 9.65967 8.91596 9.67594 8.90515 9.6888C8.89434 9.70167 8.87934 9.71032 8.86278 9.71322H8.86242Z" fill="white"/>
</g>
<defs>
<clipPath id="clip0_21_806">
<rect width="8.57143" height="8.57143" fill="white" transform="translate(4.28564 5.35715)"/>
</clipPath>
</defs>
</svg>
