<svg width="12" height="14" viewBox="0 0 12 14" fill="none" xmlns="http://www.w3.org/2000/svg">
<path d="M2.04321 0.544576L3.28842 0.210861C3.69938 0.100899 4.14131 0.127579 4.53177 0.285925C4.92224 0.44427 5.23456 0.723467 5.41049 1.07143L6.28349 2.79715C6.43501 3.09653 6.47724 3.43058 6.40426 3.75239C6.33128 4.0742 6.14674 4.36761 5.87656 4.59143L4.54778 5.692C4.36971 5.84229 4.50471 6.428 5.15528 7.43029C5.80649 8.43315 6.30985 8.82972 6.54192 8.768L8.28278 8.29486C8.63565 8.19892 9.01345 8.20353 9.36322 8.30806C9.713 8.41258 10.0172 8.61178 10.2332 8.87772L11.4739 10.4063C11.7245 10.715 11.8406 11.094 11.8005 11.473C11.7604 11.852 11.5669 12.2051 11.256 12.4669L10.2968 13.2743C9.98722 13.5349 9.60535 13.7179 9.1902 13.8045C8.77505 13.8912 8.34147 13.8784 7.93371 13.7674C5.92414 13.2206 4.06306 11.5977 2.32542 8.92172C0.583919 6.24172 -0.0737231 3.98115 0.384634 2.13429C0.47708 1.76215 0.679506 1.41866 0.971046 1.13922C1.26259 0.859784 1.63269 0.654516 2.04321 0.544576Z" fill="#F5703A"/>
</svg>
