<svg width="16" height="16" viewBox="0 0 16 16" fill="none" xmlns="http://www.w3.org/2000/svg">
<path fill-rule="evenodd" clip-rule="evenodd" d="M0 2.4C0 1.76348 0.252856 1.15303 0.702944 0.702944C1.15303 0.252856 1.76348 0 2.4 0H10.4C11.0365 0 11.647 0.252856 12.0971 0.702944C12.5471 1.15303 12.8 1.76348 12.8 2.4V7.2C12.8 7.83652 12.5471 8.44697 12.0971 8.89706C11.647 9.34714 11.0365 9.6 10.4 9.6H7.5312L4.5656 12.5656C4.45372 12.6774 4.31119 12.7536 4.15603 12.7845C4.00086 12.8153 3.84004 12.7995 3.69388 12.7389C3.54772 12.6784 3.42279 12.5759 3.33488 12.4444C3.24697 12.3128 3.20003 12.1582 3.2 12V9.6H2.4C1.76348 9.6 1.15303 9.34714 0.702944 8.89706C0.252856 8.44697 0 7.83652 0 7.2V2.4ZM16 5.6V10.4C16 11.2 15.52 12.8 13.6 12.8H12.8V15.2C12.8 15.4664 12.64 16 12 16C11.8376 16 11.7056 15.9656 11.6 15.9096L8.4904 12.8H5.6L8 10.4H10.4C11.4664 10.4 13.6 9.76 13.6 7.2V3.2C14.4 3.2 16 3.68 16 5.6Z" fill="#F5703A"/>
</svg>
