<svg width="32" height="32" viewBox="0 0 32 32" fill="none" xmlns="http://www.w3.org/2000/svg">
<path d="M31.2754 15.7539L16.7945 1.2836C16.6903 1.17913 16.5664 1.09625 16.4301 1.0397C16.2937 0.983149 16.1476 0.954041 16 0.954041C15.8524 0.954041 15.7062 0.983149 15.5699 1.0397C15.4336 1.09625 15.3097 1.17913 15.2055 1.2836L0.724597 15.7539C0.302722 16.1758 0.0636597 16.7488 0.0636597 17.3465C0.0636597 18.5875 1.07264 19.5965 2.31366 19.5965H3.83944V29.9219C3.83944 30.5442 4.34218 31.0469 4.96444 31.0469H13.75V23.1719H17.6875V31.0469H27.0355C27.6578 31.0469 28.1605 30.5442 28.1605 29.9219V19.5965H29.6863C30.284 19.5965 30.857 19.3609 31.2789 18.9356C32.1543 18.0567 32.1543 16.6328 31.2754 15.7539Z" fill="white"/>
</svg>
