<svg width="15" height="13" viewBox="0 0 15 13" fill="none" xmlns="http://www.w3.org/2000/svg">
<path d="M3.125 11.75V2.1705C3.12494 1.96691 3.1925 1.76906 3.31708 1.60804C3.44166 1.44701 3.61619 1.33192 3.81327 1.28085C4.01035 1.22978 4.21882 1.24561 4.40592 1.32587C4.59303 1.40612 4.74817 1.54625 4.847 1.72425L10.153 11.2758C10.2518 11.4537 10.407 11.5939 10.5941 11.6741C10.7812 11.7544 10.9896 11.7702 11.1867 11.7191C11.3838 11.6681 11.5583 11.553 11.6829 11.392C11.8075 11.2309 11.8751 11.0331 11.875 10.8295V1.25" stroke="#F5703A" stroke-width="2" stroke-linecap="round" stroke-linejoin="round"/>
<path d="M1.375 4.75H13.625" stroke="#F5703A" stroke-width="2" stroke-linecap="round" stroke-linejoin="round"/>
<path d="M1.375 8.25H13.625" stroke="#F5703A" stroke-width="2" stroke-linecap="round" stroke-linejoin="round"/>
</svg>
