<svg width="28" height="16" viewBox="0 0 28 16" fill="none" xmlns="http://www.w3.org/2000/svg">
<path d="M0.5 14.625C0.5 14.3266 0.618527 14.0405 0.829505 13.8295C1.04048 13.6185 1.32663 13.5 1.625 13.5H8.375C8.67337 13.5 8.95952 13.6185 9.1705 13.8295C9.38147 14.0405 9.5 14.3266 9.5 14.625C9.5 14.9234 9.38147 15.2095 9.1705 15.4205C8.95952 15.6315 8.67337 15.75 8.375 15.75H1.625C1.32663 15.75 1.04048 15.6315 0.829505 15.4205C0.618527 15.2095 0.5 14.9234 0.5 14.625ZM0.5 7.875C0.5 7.57663 0.618527 7.29048 0.829505 7.0795C1.04048 6.86853 1.32663 6.75 1.625 6.75H17.375C17.6734 6.75 17.9595 6.86853 18.1705 7.0795C18.3815 7.29048 18.5 7.57663 18.5 7.875C18.5 8.17337 18.3815 8.45952 18.1705 8.6705C17.9595 8.88147 17.6734 9 17.375 9H1.625C1.32663 9 1.04048 8.88147 0.829505 8.6705C0.618527 8.45952 0.5 8.17337 0.5 7.875ZM0.5 1.125C0.5 0.826631 0.618527 0.540484 0.829505 0.329505C1.04048 0.118527 1.32663 0 1.625 0H26.375C26.6734 0 26.9595 0.118527 27.1705 0.329505C27.3815 0.540484 27.5 0.826631 27.5 1.125C27.5 1.42337 27.3815 1.70952 27.1705 1.92049C26.9595 2.13147 26.6734 2.25 26.375 2.25H1.625C1.32663 2.25 1.04048 2.13147 0.829505 1.92049C0.618527 1.70952 0.5 1.42337 0.5 1.125Z" fill="black"/>
</svg>
