<svg width="36" height="36" viewBox="0 0 36 36" fill="none" xmlns="http://www.w3.org/2000/svg">
<path d="M28.5 10.5C28.5 8.85 27.15 7.5 25.5 7.5H22.5C21.675 7.5 21 8.175 21 9C21 9.825 21.675 10.5 22.5 10.5H25.5V14.475L20.28 21H15V15C15 14.175 14.325 13.5 13.5 13.5H9C5.685 13.5 3 16.185 3 19.5V22.5C3 23.325 3.675 24 4.5 24H6C6 26.49 8.01 28.5 10.5 28.5C12.99 28.5 15 26.49 15 24H20.28C21.195 24 22.05 23.58 22.62 22.875L27.84 16.35C28.275 15.81 28.5 15.15 28.5 14.475V10.5ZM10.5 25.5C9.675 25.5 9 24.825 9 24H12C12 24.825 11.325 25.5 10.5 25.5Z" fill="white"/>
<path d="M9 9H13.5C14.325 9 15 9.675 15 10.5C15 11.325 14.325 12 13.5 12H9C8.175 12 7.5 11.325 7.5 10.5C7.5 9.675 8.175 9 9 9ZM28.5 19.5C26.01 19.5 24 21.51 24 24C24 26.49 26.01 28.5 28.5 28.5C30.99 28.5 33 26.49 33 24C33 21.51 30.99 19.5 28.5 19.5ZM28.5 25.5C27.675 25.5 27 24.825 27 24C27 23.175 27.675 22.5 28.5 22.5C29.325 22.5 30 23.175 30 24C30 24.825 29.325 25.5 28.5 25.5Z" fill="white"/>
</svg>
