<svg width="15" height="18" viewBox="0 0 15 18" fill="none" xmlns="http://www.w3.org/2000/svg">
<rect x="0.267857" y="0.267857" width="12.8571" height="15.5357" rx="1.875" fill="#C4C4C4" stroke="#F5703A" stroke-width="0.535714"/>
<rect x="1.87503" y="1.875" width="12.8571" height="15.5357" rx="1.875" fill="#F5703A" stroke="#F5703A" stroke-width="0.535714"/>
<g clip-path="url(#clip0_21_820)">
<path d="M4 7.125C4 6.84321 4.11194 6.57296 4.3112 6.3737C4.51046 6.17444 4.78071 6.0625 5.0625 6.0625H11.4375C11.7193 6.0625 11.9895 6.17444 12.1888 6.3737C12.3881 6.57296 12.5 6.84321 12.5 7.125V9.78125H4V7.125ZM10.1094 7.65625C10.0389 7.65625 9.97136 7.68424 9.92155 7.73405C9.87174 7.78386 9.84375 7.85143 9.84375 7.92188V8.45312C9.84375 8.52357 9.87174 8.59114 9.92155 8.64095C9.97136 8.69076 10.0389 8.71875 10.1094 8.71875H11.1719C11.2423 8.71875 11.3099 8.69076 11.3597 8.64095C11.4095 8.59114 11.4375 8.52357 11.4375 8.45312V7.92188C11.4375 7.85143 11.4095 7.78386 11.3597 7.73405C11.3099 7.68424 11.2423 7.65625 11.1719 7.65625H10.1094ZM4 10.8438V11.375C4 11.6568 4.11194 11.927 4.3112 12.1263C4.51046 12.3256 4.78071 12.4375 5.0625 12.4375H11.4375C11.7193 12.4375 11.9895 12.3256 12.1888 12.1263C12.3881 11.927 12.5 11.6568 12.5 11.375V10.8438H4Z" fill="white"/>
</g>
<defs>
<clipPath id="clip0_21_820">
<rect width="8.5" height="8.5" fill="white" transform="translate(4 5)"/>
</clipPath>
</defs>
</svg>
