<svg width="32" height="24" viewBox="0 0 32 24" fill="none" xmlns="http://www.w3.org/2000/svg">
<path d="M4.75 0.75C3.55653 0.75 2.41193 1.22411 1.56802 2.06802C0.724106 2.91193 0.25 4.05653 0.25 5.25V7.5H31.75V5.25C31.75 4.05653 31.2759 2.91193 30.432 2.06802C29.5881 1.22411 28.4435 0.75 27.25 0.75H4.75Z" fill="white"/>
<path d="M0.25 18.75V9.75H31.75V18.75C31.75 19.9435 31.2759 21.0881 30.432 21.932C29.5881 22.7759 28.4435 23.25 27.25 23.25H4.75C3.55653 23.25 2.41193 22.7759 1.56802 21.932C0.724106 21.0881 0.25 19.9435 0.25 18.75ZM21.625 16.5C21.3266 16.5 21.0405 16.6185 20.8295 16.8295C20.6185 17.0405 20.5 17.3266 20.5 17.625C20.5 17.9234 20.6185 18.2095 20.8295 18.4205C21.0405 18.6315 21.3266 18.75 21.625 18.75H26.125C26.4234 18.75 26.7095 18.6315 26.9205 18.4205C27.1315 18.2095 27.25 17.9234 27.25 17.625C27.25 17.3266 27.1315 17.0405 26.9205 16.8295C26.7095 16.6185 26.4234 16.5 26.125 16.5H21.625Z" fill="white"/>
</svg>
