<svg width="32" height="34" viewBox="0 0 32 34" fill="none" xmlns="http://www.w3.org/2000/svg">
<path d="M16 11.375C14.8875 11.375 13.7999 11.7049 12.8749 12.323C11.9499 12.9411 11.2289 13.8196 10.8032 14.8474C10.3774 15.8752 10.266 17.0062 10.4831 18.0974C10.7001 19.1885 11.2358 20.1908 12.0225 20.9775C12.8092 21.7641 13.8115 22.2999 14.9026 22.5169C15.9937 22.734 17.1247 22.6226 18.1526 22.1968C19.1804 21.7711 20.0589 21.0501 20.677 20.1251C21.2951 19.2001 21.625 18.1125 21.625 17C21.6205 15.5095 21.0265 14.0814 19.9725 13.0274C18.9186 11.9735 17.4904 11.3795 16 11.375ZM28.1444 17C28.1414 17.5256 28.1029 18.0504 28.029 18.5708L31.4526 21.2511C31.6017 21.3742 31.7021 21.5463 31.736 21.7367C31.7699 21.9271 31.735 22.1233 31.6375 22.2903L28.3989 27.8816C28.3004 28.0471 28.1468 28.1726 27.9649 28.236C27.7831 28.2994 27.5847 28.2966 27.4047 28.2282L23.3793 26.611C22.5411 27.2565 21.6238 27.7921 20.6497 28.205L20.0479 32.4786C20.0142 32.67 19.9151 32.8438 19.7675 32.9703C19.6198 33.0967 19.4329 33.168 19.2386 33.1719H12.7614C12.5706 33.1682 12.3867 33.0999 12.2397 32.9782C12.0927 32.8565 11.9913 32.6885 11.9521 32.5018L11.3502 28.2282C10.3735 27.8201 9.45554 27.2836 8.62068 26.6328L4.59529 28.25C4.41535 28.3185 4.21703 28.3214 4.03518 28.2581C3.85334 28.1948 3.69963 28.0695 3.60107 27.9041L0.362478 22.3135C0.264995 22.1465 0.230071 21.9503 0.263948 21.7599C0.297824 21.5695 0.398293 21.3974 0.5474 21.2743L3.97092 18.594C3.89789 18.0657 3.85937 17.5333 3.8556 17C3.85853 16.4744 3.89705 15.9496 3.97092 15.4292L0.5474 12.7489C0.398293 12.6258 0.297824 12.4537 0.263948 12.2633C0.230071 12.0729 0.264995 11.8767 0.362478 11.7097L3.60107 6.11844C3.69952 5.95292 3.85319 5.82742 4.03504 5.76402C4.21689 5.70061 4.41527 5.70337 4.59529 5.7718L8.62068 7.38898C9.45889 6.74352 10.3762 6.20786 11.3502 5.795L11.9521 1.52141C11.9858 1.32998 12.0849 1.15619 12.2325 1.02974C12.3801 0.903292 12.5671 0.832026 12.7614 0.828125H19.2386C19.4294 0.831839 19.6133 0.900119 19.7602 1.02182C19.9072 1.14352 20.0086 1.31145 20.0479 1.4982L20.6497 5.7718C21.6277 6.17959 22.5468 6.71613 23.3828 7.36719L27.4047 5.75C27.5846 5.68151 27.7829 5.67865 27.9648 5.74192C28.1466 5.80519 28.3003 5.93054 28.3989 6.09594L31.6375 11.6872C31.735 11.8542 31.7699 12.0504 31.736 12.2408C31.7021 12.4312 31.6017 12.6033 31.4526 12.7264L28.029 15.4067C28.102 15.9347 28.1405 16.467 28.1444 17Z" fill="white"/>
</svg>
