<svg width="34" height="34" viewBox="0 0 34 34" fill="none" xmlns="http://www.w3.org/2000/svg">
<path fill-rule="evenodd" clip-rule="evenodd" d="M17.0694 25.6108C14.0157 25.6108 10.9134 23.7981 9.1028 21.3988C0.416213 21.3988 0.153625 33.8082 0.153625 33.8082H33.983C33.983 33.8082 34.6649 21.3438 24.8962 21.3438C23.0877 23.7727 20.123 25.6108 17.0694 25.6108Z" fill="white"/>
<path fill-rule="evenodd" clip-rule="evenodd" d="M24.3456 10.7344C24.3456 14.3047 21.0865 21.132 17.063 21.132C13.0458 21.132 9.78461 14.3026 9.78461 10.7344C9.78461 7.16612 13.0437 4.26918 17.063 4.26918C21.0865 4.2713 24.3456 7.16824 24.3456 10.7344Z" fill="white"/>
<path fill-rule="evenodd" clip-rule="evenodd" d="M27.5941 7.65318C27.5941 6.984 26.6623 6.444 25.5061 6.43977V5.06118C25.5061 4.85577 25.5844 0.0465927 17.0884 0.0465927C8.59666 0.0465927 8.67501 4.85577 8.67501 5.06118V6.48847C8.65384 6.48847 8.63689 6.48212 8.61784 6.48212C7.46795 6.48212 6.54254 7.01365 6.54254 7.67224V13.5042C6.54254 14.1586 7.47007 14.6922 8.61784 14.6922C9.7656 14.6922 10.6974 14.1586 10.6974 13.5042V7.67224C10.6974 7.58118 10.6402 7.49859 10.6063 7.41389V5.82353C10.6063 5.67742 9.99642 2.04777 17.0884 2.04777C24.1825 2.04777 23.4456 5.67742 23.4456 5.82353V7.49859C23.4329 7.55153 23.3927 7.59812 23.3927 7.65318V13.6186C23.3927 14.2899 24.3308 14.8341 25.4934 14.8341C25.5188 14.8341 25.5378 14.8257 25.5632 14.8257V17.0047H23.4795V19.0588H27.6152L27.5941 7.65318Z" fill="white"/>
</svg>
