<svg width="28" height="30" viewBox="0 0 28 30" fill="none" xmlns="http://www.w3.org/2000/svg">
<path d="M25.955 6.645L14 0L2.045 6.645L9.65 10.86C10.745 9.72 12.29 9 14 9C15.71 9 17.255 9.72 18.35 10.86L25.955 6.645ZM11 15C11 13.35 12.35 12 14 12C15.65 12 17 13.35 17 15C17 16.65 15.65 18 14 18C12.35 18 11 16.65 11 15ZM12.5 29.16L0.5 22.5V9.21L8.195 13.485C8.06 13.965 8 14.475 8 15C8 17.79 9.905 20.145 12.5 20.805V29.16ZM15.5 29.16V20.805C18.095 20.145 20 17.79 20 15C20 14.475 19.94 13.965 19.805 13.485L27.5 9.21V22.5L15.5 29.16Z" fill="white"/>
</svg>
