<svg width="15" height="18" viewBox="0 0 15 18" fill="none" xmlns="http://www.w3.org/2000/svg">
<rect x="0.267857" y="0.267857" width="12.8571" height="15.5357" rx="1.875" fill="#C4C4C4" stroke="#F5703A" stroke-width="0.535714"/>
<rect x="1.87503" y="1.875" width="12.8571" height="15.5357" rx="1.875" fill="#F5703A" stroke="#F5703A" stroke-width="0.535714"/>
<path d="M11.0833 10.9583H9.56042L9.81896 9.54166H11.0833C11.1773 9.54166 11.2673 9.50435 11.3338 9.43793C11.4002 9.37151 11.4375 9.28143 11.4375 9.1875C11.4375 9.09357 11.4002 9.00348 11.3338 8.93706C11.2673 8.87064 11.1773 8.83333 11.0833 8.83333H9.94646L10.1908 7.48396C10.2005 7.43661 10.2004 7.38778 10.1904 7.34048C10.1805 7.29319 10.161 7.24842 10.1332 7.20894C10.1053 7.16946 10.0696 7.1361 10.0284 7.11092C9.98714 7.08573 9.94118 7.06925 9.89333 7.0625C9.84575 7.05116 9.79635 7.04981 9.74822 7.05851C9.70009 7.06722 9.65428 7.0858 9.61369 7.11308C9.5731 7.14037 9.5386 7.17576 9.51236 7.21704C9.48612 7.25831 9.46872 7.30458 9.46125 7.35291L9.19562 8.83333H7.82146L8.06583 7.48396C8.07549 7.43661 8.07535 7.38778 8.06543 7.34048C8.05551 7.29319 8.03602 7.24842 8.00815 7.20894C7.98028 7.16946 7.94463 7.1361 7.90339 7.11092C7.86214 7.08573 7.81618 7.06925 7.76833 7.0625C7.72076 7.05116 7.67135 7.04981 7.62322 7.05851C7.57509 7.06722 7.52928 7.0858 7.48869 7.11308C7.4481 7.14037 7.4136 7.17576 7.38736 7.21704C7.36112 7.25831 7.34372 7.30458 7.33625 7.35291L7.07063 8.83333H5.41667C5.32274 8.83333 5.23265 8.87064 5.16623 8.93706C5.09981 9.00348 5.0625 9.09357 5.0625 9.1875C5.0625 9.28143 5.09981 9.37151 5.16623 9.43793C5.23265 9.50435 5.32274 9.54166 5.41667 9.54166H6.93958L6.68104 10.9583H5.41667C5.32274 10.9583 5.23265 10.9956 5.16623 11.0621C5.09981 11.1285 5.0625 11.2186 5.0625 11.3125C5.0625 11.4064 5.09981 11.4965 5.16623 11.5629C5.23265 11.6293 5.32274 11.6667 5.41667 11.6667H6.55354L6.30917 13.016C6.29951 13.0634 6.29965 13.1122 6.30957 13.1595C6.31949 13.2068 6.33898 13.2516 6.36685 13.2911C6.39472 13.3305 6.43037 13.3639 6.47161 13.3891C6.51286 13.4143 6.55882 13.4307 6.60667 13.4375C6.65424 13.4488 6.70365 13.4502 6.75178 13.4415C6.79991 13.4328 6.84572 13.4142 6.88631 13.3869C6.9269 13.3596 6.9614 13.3242 6.98764 13.283C7.01387 13.2417 7.03128 13.1954 7.03875 13.1471L7.30437 11.6667H8.67854L8.43417 13.016C8.42451 13.0634 8.42465 13.1122 8.43457 13.1595C8.44449 13.2068 8.46398 13.2516 8.49185 13.2911C8.51972 13.3305 8.55537 13.3639 8.59661 13.3891C8.63786 13.4143 8.68382 13.4307 8.73167 13.4375C8.77924 13.4488 8.82865 13.4502 8.87678 13.4415C8.92491 13.4328 8.97072 13.4142 9.01131 13.3869C9.0519 13.3596 9.0864 13.3242 9.11264 13.283C9.13888 13.2417 9.15628 13.1954 9.16375 13.1471L9.42937 11.6667H11.0833C11.1773 11.6667 11.2673 11.6293 11.3338 11.5629C11.4002 11.4965 11.4375 11.4064 11.4375 11.3125C11.4375 11.2186 11.4002 11.1285 11.3338 11.0621C11.2673 10.9956 11.1773 10.9583 11.0833 10.9583ZM7.43542 10.9583L7.69396 9.54166H9.06458L8.80604 10.9583H7.43542Z" fill="white"/>
</svg>
